<svg width="1046" height="548" viewBox="0 0 1046 548" fill="none" xmlns="http://www.w3.org/2000/svg">
<g opacity="0.2">
<path d="M1046 548H582.899L582.172 512.166L581.555 482.768L529.809 534.295L516.046 548H491.607L426.098 482.768L424.755 548H41.9054V474.849H352.819L354.888 373.168H419.853L503.809 456.769L587.765 373.168H652.729L654.871 474.849H868.61L766.57 373.168L692.528 299.438H569.935L497.672 227.408L454.858 184.776L499.596 140.227H437.101V67.1124H616.561L555.773 0H635.843L699.355 67.1124L780.115 147.531C751.428 176.098 704.947 176.098 676.26 147.531L668.961 140.263H603.452L558.714 184.812L600.401 226.287H722.922L1046 548ZM232.005 135.924L263.379 167.166L127.677 302.295L179.641 354.039L315.343 218.911L338.765 242.234L252.703 327.896L304.667 379.641L390.693 293.942L508.529 411.28L560.493 359.536L232.005 32.5437L0 263.532L51.9641 315.276L232.005 135.924Z" fill="#414141"/>
</g>
<path d="M256.996 235.18V277H251.536V235.18H256.996ZM299.782 277H294.322L272.362 243.7V277H266.902V235.12H272.362L294.322 268.36V235.12H299.782V277ZM342.569 277H337.109L315.149 243.7V277H309.689V235.12H315.149L337.109 268.36V235.12H342.569V277ZM371.437 277.42C367.557 277.42 364.017 276.52 360.817 274.72C357.617 272.88 355.077 270.34 353.197 267.1C351.357 263.82 350.437 260.14 350.437 256.06C350.437 251.98 351.357 248.32 353.197 245.08C355.077 241.8 357.617 239.26 360.817 237.46C364.017 235.62 367.557 234.7 371.437 234.7C375.357 234.7 378.917 235.62 382.117 237.46C385.317 239.26 387.837 241.78 389.677 245.02C391.517 248.26 392.437 251.94 392.437 256.06C392.437 260.18 391.517 263.86 389.677 267.1C387.837 270.34 385.317 272.88 382.117 274.72C378.917 276.52 375.357 277.42 371.437 277.42ZM371.437 272.68C374.357 272.68 376.977 272 379.297 270.64C381.657 269.28 383.497 267.34 384.817 264.82C386.177 262.3 386.857 259.38 386.857 256.06C386.857 252.7 386.177 249.78 384.817 247.3C383.497 244.78 381.677 242.84 379.357 241.48C377.037 240.12 374.397 239.44 371.437 239.44C368.477 239.44 365.837 240.12 363.517 241.48C361.197 242.84 359.357 244.78 357.997 247.3C356.677 249.78 356.017 252.7 356.017 256.06C356.017 259.38 356.677 262.3 357.997 264.82C359.357 267.34 361.197 269.28 363.517 270.64C365.877 272 368.517 272.68 371.437 272.68ZM434.805 235.18L419.025 277H412.725L396.945 235.18H402.765L415.905 271.24L429.045 235.18H434.805ZM466.111 267.7H447.871L444.511 277H438.751L453.871 235.42H460.171L475.231 277H469.471L466.111 267.7ZM464.551 263.26L456.991 242.14L449.431 263.26H464.551ZM524.841 235.48V277H519.381V246.04L505.581 277H501.741L487.881 245.98V277H482.421V235.48H488.301L503.661 269.8L519.021 235.48H524.841ZM553.661 277.42C549.781 277.42 546.241 276.52 543.041 274.72C539.841 272.88 537.301 270.34 535.421 267.1C533.581 263.82 532.661 260.14 532.661 256.06C532.661 251.98 533.581 248.32 535.421 245.08C537.301 241.8 539.841 239.26 543.041 237.46C546.241 235.62 549.781 234.7 553.661 234.7C557.581 234.7 561.141 235.62 564.341 237.46C567.541 239.26 570.061 241.78 571.901 245.02C573.741 248.26 574.661 251.94 574.661 256.06C574.661 260.18 573.741 263.86 571.901 267.1C570.061 270.34 567.541 272.88 564.341 274.72C561.141 276.52 557.581 277.42 553.661 277.42ZM553.661 272.68C556.581 272.68 559.201 272 561.521 270.64C563.881 269.28 565.721 267.34 567.041 264.82C568.401 262.3 569.081 259.38 569.081 256.06C569.081 252.7 568.401 249.78 567.041 247.3C565.721 244.78 563.901 242.84 561.581 241.48C559.261 240.12 556.621 239.44 553.661 239.44C550.701 239.44 548.061 240.12 545.741 241.48C543.421 242.84 541.581 244.78 540.221 247.3C538.901 249.78 538.241 252.7 538.241 256.06C538.241 259.38 538.901 262.3 540.221 264.82C541.581 267.34 543.421 269.28 545.741 270.64C548.101 272 550.741 272.68 553.661 272.68ZM595.729 277.42C592.969 277.42 590.489 276.94 588.289 275.98C586.129 274.98 584.429 273.62 583.189 271.9C581.949 270.14 581.309 268.12 581.269 265.84H587.089C587.289 267.8 588.089 269.46 589.489 270.82C590.929 272.14 593.009 272.8 595.729 272.8C598.329 272.8 600.369 272.16 601.849 270.88C603.369 269.56 604.129 267.88 604.129 265.84C604.129 264.24 603.689 262.94 602.809 261.94C601.929 260.94 600.829 260.18 599.509 259.66C598.189 259.14 596.409 258.58 594.169 257.98C591.409 257.26 589.189 256.54 587.509 255.82C585.869 255.1 584.449 253.98 583.249 252.46C582.089 250.9 581.509 248.82 581.509 246.22C581.509 243.94 582.089 241.92 583.249 240.16C584.409 238.4 586.029 237.04 588.109 236.08C590.229 235.12 592.649 234.64 595.369 234.64C599.289 234.64 602.489 235.62 604.969 237.58C607.489 239.54 608.909 242.14 609.229 245.38H603.229C603.029 243.78 602.189 242.38 600.709 241.18C599.229 239.94 597.269 239.32 594.829 239.32C592.549 239.32 590.689 239.92 589.249 241.12C587.809 242.28 587.089 243.92 587.089 246.04C587.089 247.56 587.509 248.8 588.349 249.76C589.229 250.72 590.289 251.46 591.529 251.98C592.809 252.46 594.589 253.02 596.869 253.66C599.629 254.42 601.849 255.18 603.529 255.94C605.209 256.66 606.649 257.8 607.849 259.36C609.049 260.88 609.649 262.96 609.649 265.6C609.649 267.64 609.109 269.56 608.029 271.36C606.949 273.16 605.349 274.62 603.229 275.74C601.109 276.86 598.609 277.42 595.729 277.42ZM662.84 247.42C662.84 250.9 661.64 253.8 659.24 256.12C656.88 258.4 653.26 259.54 648.38 259.54H640.34V277H634.88V235.18H648.38C653.1 235.18 656.68 236.32 659.12 238.6C661.6 240.88 662.84 243.82 662.84 247.42ZM648.38 255.04C651.42 255.04 653.66 254.38 655.1 253.06C656.54 251.74 657.26 249.86 657.26 247.42C657.26 242.26 654.3 239.68 648.38 239.68H640.34V255.04H648.38ZM694.946 267.7H676.706L673.346 277H667.586L682.706 235.42H689.006L704.066 277H698.306L694.946 267.7ZM693.386 263.26L685.826 242.14L678.266 263.26H693.386ZM733.276 277L723.316 259.9H716.716V277H711.256V235.18H724.756C727.916 235.18 730.576 235.72 732.736 236.8C734.936 237.88 736.576 239.34 737.656 241.18C738.736 243.02 739.276 245.12 739.276 247.48C739.276 250.36 738.436 252.9 736.756 255.1C735.116 257.3 732.636 258.76 729.316 259.48L739.816 277H733.276ZM716.716 255.52H724.756C727.716 255.52 729.936 254.8 731.416 253.36C732.896 251.88 733.636 249.92 733.636 247.48C733.636 245 732.896 243.08 731.416 241.72C729.976 240.36 727.756 239.68 724.756 239.68H716.716V255.52ZM773.079 267.7H754.839L751.479 277H745.719L760.839 235.42H767.139L782.199 277H776.439L773.079 267.7ZM771.519 263.26L763.959 242.14L756.399 263.26H771.519ZM206.126 304.88V347H195.866V304.88H206.126ZM261.861 304.88V347H251.601V321.74L242.181 347H233.901L224.421 321.68V347H214.161V304.88H226.281L238.101 334.04L249.801 304.88H261.861ZM301.94 318.44C301.94 320.88 301.38 323.12 300.26 325.16C299.14 327.16 297.42 328.78 295.1 330.02C292.78 331.26 289.9 331.88 286.46 331.88H280.1V347H269.84V304.88H286.46C289.82 304.88 292.66 305.46 294.98 306.62C297.3 307.78 299.04 309.38 300.2 311.42C301.36 313.46 301.94 315.8 301.94 318.44ZM285.68 323.72C287.64 323.72 289.1 323.26 290.06 322.34C291.02 321.42 291.5 320.12 291.5 318.44C291.5 316.76 291.02 315.46 290.06 314.54C289.1 313.62 287.64 313.16 285.68 313.16H280.1V323.72H285.68ZM334.101 339.56H318.381L315.861 347H305.121L320.361 304.88H332.241L347.481 347H336.621L334.101 339.56ZM331.461 331.64L326.241 316.22L321.081 331.64H331.461ZM350.979 325.88C350.979 321.72 351.879 318.02 353.679 314.78C355.479 311.5 357.979 308.96 361.179 307.16C364.419 305.32 368.079 304.4 372.159 304.4C377.159 304.4 381.439 305.72 384.999 308.36C388.559 311 390.939 314.6 392.139 319.16H380.859C380.019 317.4 378.819 316.06 377.259 315.14C375.739 314.22 373.999 313.76 372.039 313.76C368.879 313.76 366.319 314.86 364.359 317.06C362.399 319.26 361.419 322.2 361.419 325.88C361.419 329.56 362.399 332.5 364.359 334.7C366.319 336.9 368.879 338 372.039 338C373.999 338 375.739 337.54 377.259 336.62C378.819 335.7 380.019 334.36 380.859 332.6H392.139C390.939 337.16 388.559 340.76 384.999 343.4C381.439 346 377.159 347.3 372.159 347.3C368.079 347.3 364.419 346.4 361.179 344.6C357.979 342.76 355.479 340.22 353.679 336.98C351.879 333.74 350.979 330.04 350.979 325.88ZM429.322 304.88V313.1H418.162V347H407.902V313.1H396.742V304.88H429.322ZM461.292 339.56H445.572L443.052 347H432.312L447.552 304.88H459.432L474.672 347H463.812L461.292 339.56ZM458.652 331.64L453.432 316.22L448.272 331.64H458.652ZM501.39 347L492.63 331.1H490.17V347H479.91V304.88H497.13C500.45 304.88 503.27 305.46 505.59 306.62C507.95 307.78 509.71 309.38 510.87 311.42C512.03 313.42 512.61 315.66 512.61 318.14C512.61 320.94 511.81 323.44 510.21 325.64C508.65 327.84 506.33 329.4 503.25 330.32L512.97 347H501.39ZM490.17 323.84H496.53C498.41 323.84 499.81 323.38 500.73 322.46C501.69 321.54 502.17 320.24 502.17 318.56C502.17 316.96 501.69 315.7 500.73 314.78C499.81 313.86 498.41 313.4 496.53 313.4H490.17V323.84ZM559.185 339.56H543.465L540.945 347H530.205L545.445 304.88H557.325L572.565 347H561.705L559.185 339.56ZM556.545 331.64L551.325 316.22L546.165 331.64H556.545ZM588.064 339.08H601.504V347H577.804V304.88H588.064V339.08ZM668.012 304.88V347H657.752V321.74L648.332 347H640.052L630.572 321.68V347H620.312V304.88H632.432L644.252 334.04L655.952 304.88H668.012ZM686.07 304.88V330.08C686.07 332.6 686.69 334.54 687.93 335.9C689.17 337.26 690.99 337.94 693.39 337.94C695.79 337.94 697.63 337.26 698.91 335.9C700.19 334.54 700.83 332.6 700.83 330.08V304.88H711.09V330.02C711.09 333.78 710.29 336.96 708.69 339.56C707.09 342.16 704.93 344.12 702.21 345.44C699.53 346.76 696.53 347.42 693.21 347.42C689.89 347.42 686.91 346.78 684.27 345.5C681.67 344.18 679.61 342.22 678.09 339.62C676.57 336.98 675.81 333.78 675.81 330.02V304.88H686.07ZM756.575 347H746.315L729.155 321.02V347H718.895V304.88H729.155L746.315 330.98V304.88H756.575V347ZM780.392 304.88C784.832 304.88 788.712 305.76 792.032 307.52C795.352 309.28 797.912 311.76 799.712 314.96C801.552 318.12 802.472 321.78 802.472 325.94C802.472 330.06 801.552 333.72 799.712 336.92C797.912 340.12 795.332 342.6 791.972 344.36C788.652 346.12 784.792 347 780.392 347H764.612V304.88H780.392ZM779.732 338.12C783.612 338.12 786.632 337.06 788.792 334.94C790.952 332.82 792.032 329.82 792.032 325.94C792.032 322.06 790.952 319.04 788.792 316.88C786.632 314.72 783.612 313.64 779.732 313.64H774.872V338.12H779.732ZM828.726 347.42C824.766 347.42 821.126 346.5 817.806 344.66C814.526 342.82 811.906 340.26 809.946 336.98C808.026 333.66 807.066 329.94 807.066 325.82C807.066 321.7 808.026 318 809.946 314.72C811.906 311.44 814.526 308.88 817.806 307.04C821.126 305.2 824.766 304.28 828.726 304.28C832.686 304.28 836.306 305.2 839.586 307.04C842.906 308.88 845.506 311.44 847.386 314.72C849.306 318 850.266 321.7 850.266 325.82C850.266 329.94 849.306 333.66 847.386 336.98C845.466 340.26 842.866 342.82 839.586 344.66C836.306 346.5 832.686 347.42 828.726 347.42ZM828.726 338.06C832.086 338.06 834.766 336.94 836.766 334.7C838.806 332.46 839.826 329.5 839.826 325.82C839.826 322.1 838.806 319.14 836.766 316.94C834.766 314.7 832.086 313.58 828.726 313.58C825.326 313.58 822.606 314.68 820.566 316.88C818.566 319.08 817.566 322.06 817.566 325.82C817.566 329.54 818.566 332.52 820.566 334.76C822.606 336.96 825.326 338.06 828.726 338.06Z" fill="white"/>
</svg>
