<svg width="834" height="88" viewBox="0 0 834 88" fill="none" xmlns="http://www.w3.org/2000/svg">
<path d="M64.2813 0.0468597H-21.625V86H64.2813V0.0468597Z" fill="#101010"/>
<path d="M-21.7188 0V85.9829C1.67771 85.557 20.521 66.4809 20.521 42.9915C20.521 19.5021 1.67771 0.425996 -21.7188 0Z" fill="#FCBC00"/>
<path d="M20.7041 0V85.9829C44.1219 85.557 62.9779 66.4809 62.9779 42.9915C62.9779 19.5021 44.1219 0.425996 20.7041 0Z" fill="#FD5115"/>
<path d="M150.281 86V0L64.2813 0V86H150.281Z" fill="#101010"/>
<path d="M127.882 44.5486L117.474 22.2958L107.062 0.0474701H127.882H148.697L138.29 22.2958L127.882 44.5486Z" fill="#FCBC00"/>
<path d="M86.6355 44.5486L76.2278 22.2958L65.8201 0.0474701H86.6355H107.451L97.0433 22.2958L86.6355 44.5486Z" fill="#FCBC00"/>
<path d="M127.882 85.9397L117.474 65.2442L107.062 44.5486H127.882H148.697L138.29 65.2442L127.882 85.9397Z" fill="#FCBC00"/>
<path d="M86.6355 85.9397L76.2278 65.2442L65.8201 44.5486H86.6355H107.451L97.0433 65.2442L86.6355 85.9397Z" fill="#FCBC00"/>
<path d="M236.281 0H150.281V86H236.281V0Z" fill="#101010"/>
<path d="M234.789 1.89747C234.789 24.6287 216.565 43.0533 194.085 43.0533C193.889 43.0533 193.701 43.0533 193.505 43.0448C193.514 19.998 211.989 1.3133 234.785 1.30477C234.793 1.50091 234.793 1.69279 234.793 1.8932L234.789 1.89747Z" fill="#FD5115"/>
<path d="M152.14 1.89747C152.14 24.6287 170.365 43.0533 192.844 43.0533C193.04 43.0533 193.228 43.0533 193.424 43.0448C193.416 19.998 174.94 1.3133 152.145 1.30477C152.136 1.50091 152.136 1.69279 152.136 1.8932L152.14 1.89747Z" fill="#FD5115"/>
<path d="M151.774 84.1025C151.774 61.3713 169.998 42.9467 192.478 42.9467C192.674 42.9467 192.861 42.9467 193.058 42.9552C193.049 66.002 174.573 84.6867 151.778 84.6952C151.77 84.4991 151.77 84.3072 151.77 84.1068L151.774 84.1025Z" fill="#FD5115"/>
<path d="M234.418 84.1025C234.418 61.3713 216.194 42.9467 193.714 42.9467C193.518 42.9467 193.33 42.9467 193.134 42.9552C193.143 66.002 211.619 84.6867 234.414 84.6952C234.422 84.4991 234.422 84.3072 234.422 84.1068L234.418 84.1025Z" fill="#FD5115"/>
<path d="M322.281 0H236.409V86H322.281V0Z" fill="#101010"/>
<path d="M278.761 86H236.409V0H322.277V43.1305L278.761 86Z" fill="#FD7444"/>
<path d="M236.281 85.9999V0.235329H322.277L236.281 85.9999Z" fill="#FCBC00"/>
<path d="M253.4 13.6693C253.4 37.0149 272.084 55.9353 295.136 55.9353C295.336 55.9353 295.531 55.9353 295.731 55.9268C295.723 32.2559 276.78 13.0701 253.405 13.0659C253.396 13.2713 253.396 13.4639 253.396 13.6693H253.4Z" fill="#FD5115"/>
<path d="M408.281 0H322.281V86H408.281V0Z" fill="#101010"/>
<path d="M342.814 52.6109C348.011 52.6109 352.223 48.3504 352.223 43.0949C352.223 37.8395 348.011 33.5791 342.814 33.5791C337.618 33.5791 333.406 37.8395 333.406 43.0949C333.406 48.3504 337.618 52.6109 342.814 52.6109Z" fill="#FD5115"/>
<path d="M364.911 52.6109C370.107 52.6109 374.32 48.3504 374.32 43.0949C374.32 37.8395 370.107 33.5791 364.911 33.5791C359.714 33.5791 355.502 37.8395 355.502 43.0949C355.502 48.3504 359.714 52.6109 364.911 52.6109Z" fill="#FD5115"/>
<path d="M387.002 52.6109C392.199 52.6109 396.411 48.3504 396.411 43.0949C396.411 37.8395 392.199 33.5791 387.002 33.5791C381.806 33.5791 377.594 37.8395 377.594 43.0949C377.594 48.3504 381.806 52.6109 387.002 52.6109Z" fill="#FD5115"/>
<path d="M494.281 0.0468597H408.375V86H494.281V0.0468597Z" fill="#101010"/>
<path d="M408.281 86L494.281 86C493.855 62.5822 474.775 43.7262 451.281 43.7262C427.787 43.7262 408.707 62.5822 408.281 86Z" fill="#FD5115"/>
<path d="M408.281 43.7262L494.281 43.7262C493.855 20.3297 474.775 1.48647 451.281 1.48648C427.787 1.48648 408.707 20.3297 408.281 43.7262Z" fill="#FCBC00"/>
<path d="M580.281 86V0L494.281 0V86H580.281Z" fill="#101010"/>
<path d="M557.882 44.5486L547.474 22.2958L537.062 0.0474701H557.882H578.697L568.29 22.2958L557.882 44.5486Z" fill="#FD5115"/>
<path d="M516.636 44.5486L506.228 22.2958L495.82 0.0474701H516.636H537.451L527.043 22.2958L516.636 44.5486Z" fill="#FD5115"/>
<path d="M557.882 85.9397L547.474 65.2442L537.062 44.5486H557.882H578.697L568.29 65.2442L557.882 85.9397Z" fill="#FD5115"/>
<path d="M516.636 85.9397L506.228 65.2442L495.82 44.5486H516.636H537.451L527.043 65.2442L516.636 85.9397Z" fill="#FD5115"/>
<path d="M752.709 0H580.281V86H752.709V0Z" fill="#101010"/>
<path d="M598.679 26.168C598.679 45.4987 614.155 61.1712 633.246 61.1712C633.413 61.1712 633.571 61.1713 633.738 61.167C633.734 41.5667 618.04 25.6759 598.683 25.6716C598.679 25.8385 598.679 26.0011 598.679 26.1722V26.168Z" fill="#FCBC00"/>
<path d="M733.832 26.168C733.832 45.4987 718.356 61.1712 699.265 61.1712C699.098 61.1712 698.94 61.1713 698.773 61.167C698.777 41.5667 714.471 25.6759 733.828 25.6716C733.832 25.8385 733.832 26.0011 733.832 26.1722V26.168Z" fill="#FCBC00"/>
<path d="M838.709 0H752.709V86H838.709V0Z" fill="#101010"/>
<path d="M770.207 27.5302C776.325 27.5302 781.285 22.609 781.285 16.5385C781.285 10.4679 776.325 5.54674 770.207 5.54674C764.09 5.54674 759.13 10.4679 759.13 16.5385C759.13 22.609 764.09 27.5302 770.207 27.5302Z" fill="#FD5115"/>
<path d="M796.217 27.5302C802.335 27.5302 807.295 22.609 807.295 16.5385C807.295 10.4679 802.335 5.54674 796.217 5.54674C790.099 5.54674 785.14 10.4679 785.14 16.5385C785.14 22.609 790.099 27.5302 796.217 27.5302Z" fill="#FD5115"/>
<path d="M822.227 27.5302C828.345 27.5302 833.304 22.609 833.304 16.5385C833.304 10.4679 828.345 5.54674 822.227 5.54674C816.109 5.54674 811.149 10.4679 811.149 16.5385C811.149 22.609 816.109 27.5302 822.227 27.5302Z" fill="#FD5115"/>
<path d="M770.207 54.2202C776.325 54.2202 781.285 49.299 781.285 43.2284C781.285 37.1579 776.325 32.2367 770.207 32.2367C764.09 32.2367 759.13 37.1579 759.13 43.2284C759.13 49.299 764.09 54.2202 770.207 54.2202Z" fill="#FD5115"/>
<path d="M796.217 54.2202C802.335 54.2202 807.295 49.299 807.295 43.2284C807.295 37.1579 802.335 32.2367 796.217 32.2367C790.099 32.2367 785.14 37.1579 785.14 43.2284C785.14 49.299 790.099 54.2202 796.217 54.2202Z" fill="#FD5115"/>
<path d="M822.227 54.2202C828.345 54.2202 833.304 49.299 833.304 43.2284C833.304 37.1579 828.345 32.2367 822.227 32.2367C816.109 32.2367 811.149 37.1579 811.149 43.2284C811.149 49.299 816.109 54.2202 822.227 54.2202Z" fill="#FD5115"/>
<path d="M770.207 80.9101C776.325 80.9101 781.285 75.9889 781.285 69.9184C781.285 63.8478 776.325 58.9266 770.207 58.9266C764.09 58.9266 759.13 63.8478 759.13 69.9184C759.13 75.9889 764.09 80.9101 770.207 80.9101Z" fill="#FD5115"/>
<path d="M796.217 80.9101C802.335 80.9101 807.295 75.9889 807.295 69.9184C807.295 63.8478 802.335 58.9266 796.217 58.9266C790.099 58.9266 785.14 63.8478 785.14 69.9184C785.14 75.9889 790.099 80.9101 796.217 80.9101Z" fill="#FD5115"/>
<path d="M822.227 80.9101C828.345 80.9101 833.304 75.9889 833.304 69.9184C833.304 63.8478 828.345 58.9266 822.227 58.9266C816.109 58.9266 811.149 63.8478 811.149 69.9184C811.149 75.9889 816.109 80.9101 822.227 80.9101Z" fill="#FD5115"/>
</svg>
