<svg width="359" height="165" viewBox="0 0 359 165" fill="none" xmlns="http://www.w3.org/2000/svg">
<g clip-path="url(#clip0_10_86)">
<path d="M63.0073 93.7309H50.1912V86.4915H37.3751V163.084H50.1912V147.537H63.0073V163.084H75.8182V86.4915H63.0073V93.7309ZM50.1912 128.545V112.718H63.0073V128.545H50.1912Z" fill="white"/>
<path d="M82.2211 131.177V149.372L89.6404 156.819L95.5944 162.804L95.8781 163.084H113.993L102.245 151.289L82.2211 131.177Z" fill="white"/>
<path d="M82.6183 103.287V121.476L90.0325 128.928L95.9917 134.908L96.2754 135.193H114.385L102.637 123.394L82.6183 103.287Z" fill="white"/>
<path d="M0.39212 163.084H18.507L18.7907 162.804L24.7447 156.819L32.164 149.372V131.177L12.1402 151.289L0.39212 163.084Z" fill="white"/>
<path d="M18.3935 134.908L24.3526 128.928L31.7668 121.476V103.287L11.7481 123.394L0 135.193H18.1097L18.3935 134.908Z" fill="white"/>
<path d="M46.4403 3.6183C42.2198 1.57135 37.6279 0.534912 32.7832 0.534912C23.0267 0.534912 15.3649 3.63903 10.0093 9.75917C4.67447 15.8586 1.96576 25.4197 1.96576 38.1782C1.96576 50.9367 4.43714 60.5703 9.31798 66.6334C14.2195 72.7277 21.2054 75.8214 30.0796 75.8214C33.8873 75.8214 37.535 75.013 40.9196 73.4169C44.005 71.9607 46.6879 69.8827 48.9013 67.2242L51.0167 74.5673H60.5823V34.5092H29.8578V47.0759H45.8779C45.7902 51.9057 44.5209 55.8286 42.1012 58.7462C39.6143 61.7415 36.3742 63.2598 32.4633 63.2598C27.1284 63.2598 23.1453 61.3165 20.6275 57.4869C18.0633 53.5899 16.7579 47.9725 16.7579 40.7952V35.5664C16.7579 28.529 18.0426 22.9426 20.5759 18.9731C23.0989 15.0242 26.953 13.1017 32.3601 13.1017C36.0904 13.1017 39.3151 14.3195 41.9412 16.724C44.5519 19.1182 45.8779 22.7146 45.8779 27.4096V27.9434H60.572V27.4096C60.572 21.6211 59.2667 16.667 56.6869 12.6923C54.1124 8.72792 50.6607 5.67562 46.4299 3.6183H46.4403Z" fill="white"/>
<path d="M120.711 9.75917C115.355 3.63903 107.905 0.534912 98.5611 0.534912C89.2173 0.534912 81.7619 3.63903 76.4115 9.75917C71.0767 15.8586 68.3679 25.4197 68.3679 38.1782C68.3679 50.9367 71.0715 60.4097 76.4064 66.5453C81.7567 72.7018 89.2121 75.8214 98.5559 75.8214C107.9 75.8214 115.355 72.7018 120.705 66.5453C126.04 60.4097 128.744 50.8641 128.744 38.1782C128.744 25.4922 126.04 15.8586 120.705 9.75917H120.711ZM83.1653 35.5664C83.1653 28.529 84.4809 22.9478 87.0864 18.9782C89.6765 15.0242 93.4274 13.1017 98.5611 13.1017C103.695 13.1017 107.528 15.0242 110.087 18.9731C112.657 22.9426 113.957 28.5238 113.957 35.5664V40.7952C113.957 47.8325 112.657 53.4189 110.087 57.3885C107.528 61.3373 103.762 63.2598 98.5611 63.2598C93.3603 63.2598 89.6404 61.2854 87.0864 57.3833C84.4861 53.4137 83.1653 47.8325 83.1653 40.7952V35.5664Z" fill="white"/>
<path d="M182.036 60.9537H151.853V1.78894H137.474V74.5673H182.036V60.9537Z" fill="white"/>
<path d="M234.735 65.1202C239.894 58.8809 242.505 49.4649 242.505 37.1313C242.505 25.4818 239.884 16.5892 234.724 10.6971C229.544 4.78423 222.352 1.78894 213.354 1.78894H189.615V74.5673H213.354C222.357 74.5673 229.549 71.3906 234.735 65.1254V65.1202ZM227.707 39.7431C227.707 47.0448 226.273 52.5793 223.451 56.1913C220.654 59.767 216.842 61.5808 212.11 61.5808H204.005V14.7703H212.11C216.852 14.7703 220.675 16.413 223.471 19.657C226.289 22.9218 227.713 27.9226 227.713 34.5195V39.7483L227.707 39.7431Z" fill="white"/>
<path d="M298.392 61.5859H265.609V43.8319H293.191V30.8505H265.609V14.7703H297.768V1.78894H251.224V74.5673H298.392V61.5859Z" fill="white"/>
<path d="M320.98 34.0997C320.98 33.4675 320.965 32.6798 320.928 31.7263C320.903 31.0941 320.872 30.3427 320.836 29.4773C321.377 30.6432 321.836 31.6175 322.213 32.4C322.745 33.509 323.142 34.2863 323.426 34.7786L345.642 74.5673H358.35V1.78894H345.425V42.2565C345.425 42.6089 345.441 43.2774 345.477 44.262C345.498 44.9201 345.513 45.7337 345.524 46.7028C345.075 45.6767 344.683 44.8009 344.357 44.0754C343.852 42.9509 343.388 42.1166 342.985 41.5776L320.758 1.78894H308.154V74.5673H320.975V34.0997H320.98Z" fill="white"/>
<path d="M168.601 87.9218C164.127 85.7505 159.252 84.6519 154.113 84.6519C143.758 84.6519 135.632 87.9425 129.951 94.4358C124.291 100.908 121.423 111.055 121.423 124.596C121.423 138.137 124.049 148.367 129.224 154.792C134.424 161.26 141.833 164.54 151.244 164.54C155.284 164.54 159.154 163.68 162.745 161.99C166.036 160.441 168.895 158.218 171.247 155.373L173.507 163.208H183.61V120.735H151.048V134.012H168.064C167.976 139.163 166.625 143.35 164.045 146.46C161.398 149.647 157.946 151.263 153.788 151.263C148.107 151.263 143.871 149.196 141.188 145.117C138.459 140.972 137.076 135.002 137.076 127.374V121.824C137.076 114.34 138.444 108.407 141.137 104.183C143.82 99.9807 147.922 97.9337 153.68 97.9337C157.652 97.9337 161.083 99.2293 163.875 101.789C166.656 104.339 168.069 108.163 168.069 113.164V113.698H183.61V113.164C183.61 107.018 182.222 101.769 179.487 97.5503C176.758 93.3423 173.095 90.1035 168.606 87.927L168.601 87.9218Z" fill="white"/>
<path d="M229.983 85.9785H212.74L187.969 163.198H202.798L207.328 148.211H234.508L239.151 163.198H254.748L230.096 86.3464L229.978 85.9785H229.983ZM220.113 105.489C220.365 104.256 220.644 102.795 220.959 101.095C221.232 102.675 221.511 104.08 221.784 105.277C222.156 106.92 222.527 108.422 222.899 109.754L230.318 134.489H211.522L219.05 109.759C219.421 108.562 219.777 107.122 220.113 105.489Z" fill="white"/>
<path d="M248.851 99.7009H267.642V163.203H282.852V99.7009H301.637V85.9785H248.851V99.7009Z" fill="white"/>
<path d="M324.184 149.481V130.566H353.474V116.843H324.184V99.7009H358.34V85.9785H308.979V163.203H359V149.481H324.184Z" fill="white"/>
</g>
<defs>
<clipPath id="clip0_10_86">
<rect width="359" height="164" fill="white" transform="translate(0 0.534912)"/>
</clipPath>
</defs>
</svg>
