<svg width="303" height="119" viewBox="0 0 303 119" fill="none" xmlns="http://www.w3.org/2000/svg">
<path d="M145.303 66.1303C141.388 65.1971 140.054 64.6173 140.054 62.972C140.054 61.5043 141.522 60.4806 143.879 60.4806C146.37 60.4806 148.639 61.4137 150.953 63.1496C151.265 63.3725 151.576 63.5048 151.797 63.5048C152.109 63.5048 152.375 63.2819 152.643 62.8814L155.046 59.0564C155.269 58.7447 155.358 58.4784 155.358 58.1667C155.358 57.855 155.18 57.5434 154.823 57.277C151.665 54.7403 148.018 53.4519 143.924 53.4519C136.984 53.4519 132.047 57.1447 132.047 63.416C132.047 68.8881 135.339 71.3778 141.833 72.9361C146.149 73.9598 147.44 74.5813 147.44 76.1831C147.44 77.7849 145.883 78.7181 143.035 78.7181C140.366 78.7181 137.562 77.6508 135.428 76.0055C135.073 75.7392 134.805 75.6051 134.582 75.6051C134.27 75.6051 133.958 75.828 133.692 76.2719L131.378 79.9647C131.155 80.3198 131.023 80.6315 131.023 80.9432C131.023 81.2548 131.246 81.61 131.69 81.9669C134.714 84.3243 138.541 85.7485 143.033 85.7485C150.507 85.7485 155.445 81.9669 155.445 75.6957C155.445 70.4464 152.198 67.8227 145.301 66.1303H145.303ZM242.334 44.1112V38.1499H229.656C229.121 38.1499 228.989 37.9723 228.989 37.4831V33.8356C228.989 33.3463 229.123 33.1688 229.656 33.1688H239.62C240.466 33.1688 240.776 32.7683 240.776 32.0127V26.0513H228.987V21.9146C228.987 21.4254 229.121 21.2478 229.654 21.2478H242.289V15.2864C242.289 14.5308 241.888 14.1304 241.088 14.1304H222.404C221.649 14.1304 221.248 14.442 221.248 15.2864V45.2673H241.133C241.934 45.2673 242.334 44.8668 242.334 44.1112ZM188.718 54.0318C187.962 54.0318 187.562 54.3434 187.562 55.1878V71.8253C187.562 81.2113 193.123 85.7503 201.353 85.7503C209.583 85.7503 215.722 80.9468 215.722 71.7383V54.0336H209.137C208.381 54.0336 207.981 54.3452 207.981 55.1896V71.2038C207.981 76.0073 205.712 78.6329 201.619 78.6329C197.526 78.6329 195.303 76.0092 195.303 71.2038V54.0318H188.72H188.718ZM200.653 45.2691H207.236C208.083 45.2691 208.392 44.8686 208.392 44.1131V21.246H216.088C216.934 21.246 217.244 20.8455 217.244 20.09V14.1286H192.956C192.201 14.1286 191.8 14.4402 191.8 15.2846V21.246H200.653V45.2673V45.2691ZM170.584 33.9696V45.2691H177.167C178.013 45.2691 178.323 44.8686 178.323 44.1131V33.7486L189.31 15.4205C189.488 15.1542 189.577 14.9313 189.577 14.7084C189.577 14.308 189.265 14.1304 188.644 14.1304H182.728C181.615 14.1304 181.215 14.308 180.637 15.377L174.498 26.2307L168.359 15.377C167.781 14.3098 167.38 14.1304 166.268 14.1304H160.129C159.505 14.1304 159.194 14.308 159.194 14.7084C159.194 14.9313 159.283 15.1523 159.46 15.4205L170.582 33.9715L170.584 33.9696ZM251.305 69.2469C251.305 78.9445 244.721 85.1723 233.512 85.1723H222.169V55.1896C222.169 54.3452 222.569 54.0336 223.325 54.0336H234.267C245.078 54.0336 251.305 59.995 251.305 69.2469ZM243.298 69.4698C243.298 64.3981 239.874 61.151 233.646 61.151H230.576C230.042 61.151 229.91 61.3286 229.91 61.8178V77.3881C229.91 77.8773 230.044 78.0549 230.576 78.0549H233.468C239.874 78.0549 243.298 74.8513 243.298 69.4698ZM256.286 55.1896V85.1723H264.027V54.0336H257.444C256.689 54.0336 256.288 54.3452 256.288 55.1896H256.286ZM259.327 26.2307C255.411 25.2957 254.078 24.7177 254.078 23.0725C254.078 21.6048 255.545 20.581 257.903 20.581C260.394 20.581 262.663 21.516 264.977 23.25C265.288 23.4729 265.6 23.6052 265.821 23.6052C266.133 23.6052 266.399 23.3823 266.667 22.9819L269.07 19.1568C269.293 18.8451 269.381 18.5788 269.381 18.2671C269.381 17.9555 269.204 17.6438 268.847 17.3774C265.689 14.8425 262.041 13.5524 257.948 13.5524C251.008 13.5524 246.07 17.2452 246.07 23.5164C246.07 28.9885 249.363 31.48 255.857 33.0365C260.173 34.0602 261.461 34.6817 261.461 36.2835C261.461 37.8853 259.905 38.8185 257.058 38.8185C254.389 38.8185 251.586 37.7512 249.452 36.1041C249.095 35.8378 248.828 35.7037 248.605 35.7037C248.294 35.7037 247.982 35.9266 247.716 36.3705L245.402 40.0633C245.179 40.4184 245.047 40.7301 245.047 41.0418C245.047 41.3534 245.27 41.7086 245.714 42.0655C248.738 44.4229 252.565 45.8471 257.056 45.8471C264.529 45.8471 269.468 42.0655 269.468 35.7943C269.468 30.545 266.221 27.9213 259.325 26.2307H259.327ZM302.327 69.6039C302.461 78.9011 295.12 85.8862 285.555 85.7521C276.169 85.8862 268.829 78.9011 269.006 69.6926C268.872 60.3954 276.213 53.3215 285.644 53.4556C295.207 53.3215 302.459 60.3066 302.325 69.6039H302.327ZM294.32 69.6473C294.32 64.2205 290.583 60.573 285.646 60.573C280.708 60.573 277.015 64.2658 277.015 69.6473C277.015 75.0289 280.663 78.6329 285.6 78.6329C290.538 78.6329 294.32 74.9401 294.32 69.6473ZM157.641 35.7472C157.641 42.3301 153.015 45.2673 144.963 45.2673H132.018V15.2846C132.018 14.4384 132.418 14.1286 133.174 14.1286H144.828C152.613 14.1286 156.661 16.7088 156.661 22.8043C156.661 25.8285 155.148 28.0083 152.79 29.1208C155.771 30.0105 157.639 32.5473 157.639 35.749L157.641 35.7472ZM139.759 25.515C139.759 26.0042 139.893 26.1818 140.425 26.1818H144.385C147.454 26.1818 148.744 25.4262 148.744 23.5128C148.744 21.5993 147.454 20.889 144.385 20.889H140.425C139.891 20.889 139.759 21.0666 139.759 21.5558V25.515ZM149.634 35.7019C149.634 33.745 148.121 32.9441 144.963 32.9441H139.757V37.8382C139.757 38.3274 139.891 38.505 140.424 38.505H144.961C148.208 38.505 149.632 37.6588 149.632 35.7019H149.634ZM158.337 55.186V61.1474H167.188V85.1687H173.773C174.617 85.1687 174.929 84.7682 174.929 84.0126V61.1474H182.624C183.471 61.1474 183.78 60.7469 183.78 59.9913V54.03H159.491C158.735 54.03 158.335 54.3416 158.335 55.186H158.337Z" fill="white"/>
<path d="M64.4114 65.0996L46.7175 79.3163V84.899H71.3132C79.2768 84.3989 79.5993 76.8756 79.5993 76.8756C80.248 71.2694 77.7946 68.2959 75.3538 66.7412C73.6379 65.6486 71.6302 65.1014 69.5954 65.1014H64.4132L64.4114 65.0996ZM46.7175 33.1527V38.6466L65.0763 52.8634C65.0763 52.8634 69.1968 53.3019 72.1865 49.0763C75.0748 44.9958 74.9262 39.3877 71.3929 35.8508C71.2751 35.733 71.1519 35.6152 71.0251 35.5011C69.32 33.9645 67.084 33.1509 64.7882 33.1509H46.7175V33.1527ZM34.0717 41.0837L57.611 58.8266L34.0717 76.5694V41.0837ZM34.1804 80.7532L61.9616 58.6417L34.2656 37.4725V19.8293H66.1943C77.6297 19.8293 87.784 29.1574 88.2351 40.5818C88.4743 46.6555 86.2094 52.2002 82.3879 56.2681L82.194 56.4456C87.6934 60.9792 91.0817 67.9806 90.665 75.754C89.9982 88.204 83.5385 97.7205 71.0704 97.7205H46.6051C46.6051 97.7205 46.5707 97.7205 46.5037 97.7205C45.46 97.7205 36.6411 97.3436 34.1804 84.7142M59.5607 0.113281C26.9507 0.113281 0.514038 26.5499 0.514038 59.16C0.514038 91.77 26.9507 118.207 59.5607 118.207C92.1707 118.207 118.607 91.7718 118.607 59.16C118.606 26.5499 92.1707 0.113281 59.5607 0.113281Z" fill="white"/>
</svg>
