<svg width="24" height="25" viewBox="0 0 24 25" fill="none" xmlns="http://www.w3.org/2000/svg">
<path d="M12 2.21436C6.50716 2.21436 2.05447 6.66704 2.05447 12.1599C2.05447 17.6527 6.50716 22.1054 12 22.1054C17.4928 22.1054 21.9455 17.6527 21.9455 12.1599C21.9455 6.66704 17.4928 2.21436 12 2.21436ZM9.5654 16.2821H7.55144V9.80091H9.5654V16.2821ZM8.54599 9.00527C7.90989 9.00527 7.4986 8.55462 7.4986 7.99725C7.4986 7.42849 7.92232 6.99131 8.57189 6.99131C9.22145 6.99131 9.61927 7.42849 9.63171 7.99725C9.63171 8.55462 9.22145 9.00527 8.54599 9.00527ZM16.9209 16.2821H14.907V12.6903C14.907 11.8542 14.6148 11.2865 13.8865 11.2865C13.3302 11.2865 12.9997 11.6709 12.8536 12.0407C12.7998 12.1723 12.7863 12.3588 12.7863 12.5442V16.281H10.7713V11.8677C10.7713 11.0586 10.7454 10.3821 10.7185 9.79988H12.4682L12.5605 10.7002H12.6009C12.8661 10.2775 13.5156 9.6538 14.6024 9.6538C15.9274 9.6538 16.9209 10.5416 16.9209 12.4499V16.2821Z" fill="#FCBC00"/>
</svg>
