<svg width="44" height="45" viewBox="0 0 44 45" fill="none" xmlns="http://www.w3.org/2000/svg">
<path d="M0 4.65991C0 2.45077 1.79086 0.659912 4 0.659912H40C42.2091 0.659912 44 2.45077 44 4.65991V40.6599C44 42.8691 42.2091 44.6599 40 44.6599H4C1.79086 44.6599 0 42.869 0 40.6599V4.65991Z" fill="#FDD254" fill-opacity="0.1"/>
<path fill-rule="evenodd" clip-rule="evenodd" d="M21.3861 11.8706C21.7472 11.5897 22.2528 11.5897 22.6139 11.8706L31.6139 18.8706C31.8575 19.06 32 19.3513 32 19.6599V30.6599C32 31.4556 31.6839 32.2186 31.1213 32.7812C30.5587 33.3438 29.7957 33.6599 29 33.6599H15C14.2043 33.6599 13.4413 33.3438 12.8787 32.7812C12.3161 32.2186 12 31.4556 12 30.6599V19.6599C12 19.3513 12.1425 19.06 12.3861 18.8706L21.3861 11.8706ZM20 31.6599H24V23.6599H20V31.6599ZM26 31.6599V22.6599C26 22.1076 25.5523 21.6599 25 21.6599H19C18.4477 21.6599 18 22.1076 18 22.6599V31.6599H15C14.7348 31.6599 14.4804 31.5546 14.2929 31.367C14.1054 31.1795 14 30.9251 14 30.6599V20.149L22 13.9268L30 20.149V30.6599C30 30.9251 29.8946 31.1795 29.7071 31.367C29.5196 31.5546 29.2652 31.6599 29 31.6599H26Z" fill="#FCBC00"/>
</svg>
