<svg width="111" height="84" viewBox="0 0 111 84" fill="none" xmlns="http://www.w3.org/2000/svg">
<path d="M94.4078 83.4044H100.632V43.2308H94.4078V83.4044Z" fill="white"/>
<path d="M74.2353 83.9702C81.874 83.9702 89.6258 78.5949 89.6258 68.6929C89.6258 58.791 81.874 53.4156 74.2353 53.4156C66.5967 53.4156 58.8449 58.791 58.8449 68.6929C58.8449 78.5949 66.5967 83.9702 74.2353 83.9702ZM65.0124 68.6929C65.0124 62.6386 69.4258 59.1305 74.2353 59.1305C79.0449 59.1305 83.4017 62.6386 83.4017 68.6929C83.4017 74.7472 79.0449 78.2554 74.2353 78.2554C69.4258 78.2554 65.0124 74.7472 65.0124 68.6929Z" fill="white"/>
<path d="M40.087 83.9702C47.7256 83.9702 55.4774 78.5949 55.4774 68.6929C55.4774 58.791 47.7256 53.4156 40.087 53.4156C32.4483 53.4156 24.6965 58.791 24.6965 68.6929C24.6965 78.5949 32.4483 83.9702 40.087 83.9702ZM30.864 68.6929C30.864 62.6386 35.2775 59.1305 40.087 59.1305C44.8965 59.1305 49.2533 62.6386 49.2533 68.6929C49.2533 74.7472 44.8965 78.2554 40.087 78.2554C35.2775 78.2554 30.864 74.7472 30.864 68.6929Z" fill="white"/>
<path d="M10.4568 83.4044H16.8506V49.172H26.9788V43.2308H0.328491V49.172H10.4568V83.4044Z" fill="white"/>
<path d="M93.7656 41.6549C99.6502 41.6549 106.383 39.5048 110.514 32.3188L103.328 27.3396C101.234 30.5082 98.2356 32.2057 94.1617 32.2057C88.1639 32.2057 83.0715 28.1317 83.0715 21.0023C83.0715 13.9861 88.0508 9.79901 94.0485 9.79901C98.0093 9.79901 101.234 11.4965 103.328 14.6085L110.514 9.68584C106.383 2.49986 99.7068 0.349731 93.8222 0.349731C82.4491 0.349731 72.8301 8.38444 72.8301 21.0023C72.8301 33.6202 82.3925 41.6549 93.7656 41.6549Z" fill="white"/>
<path d="M50.6051 41.0891H60.507V25.9816L75.275 0.915527H64.0151L55.5843 16.6455L47.0969 0.915527H35.837L50.6051 25.9816V41.0891Z" fill="white"/>
<path d="M1.12057 41.0891H11.0791V29.7726L13.9082 26.2645L24.7155 41.0891H35.6359L19.7362 19.0785L34.3911 0.915527H23.3575L11.0791 16.5889V0.915527H1.12057V41.0891Z" fill="white"/>
</svg>
