<svg width="44" height="45" viewBox="0 0 44 45" fill="none" xmlns="http://www.w3.org/2000/svg">
<path d="M0 4.65991C0 2.45077 1.79086 0.659912 4 0.659912H40C42.2091 0.659912 44 2.45077 44 4.65991V40.6599C44 42.8691 42.2091 44.6599 40 44.6599H4C1.79086 44.6599 0 42.869 0 40.6599V4.65991Z" fill="#FDD254" fill-opacity="0.1"/>
<path fill-rule="evenodd" clip-rule="evenodd" d="M13.1066 16.2139L22 22.4393L30.8934 16.2139C30.728 15.8868 30.388 15.6599 30 15.6599H14C13.612 15.6599 13.272 15.8868 13.1066 16.2139ZM31 18.5806L22.5735 24.4791C22.2291 24.7202 21.7709 24.7202 21.4265 24.4791L13 18.5806V28.6599C13 29.2076 13.4523 29.6599 14 29.6599H30C30.5477 29.6599 31 29.2076 31 28.6599V18.5806ZM11 16.6599C11 15.0076 12.3477 13.6599 14 13.6599H30C31.6523 13.6599 33 15.0076 33 16.6599V28.6599C33 30.3122 31.6523 31.6599 30 31.6599H14C12.3477 31.6599 11 30.3122 11 28.6599V16.6599Z" fill="#FCBC00"/>
</svg>
