<svg width="291" height="101" viewBox="0 0 291 101" fill="none" xmlns="http://www.w3.org/2000/svg">
<path d="M61.3304 65.9722V99.5563H69.5095V97.2385H69.6513C69.8404 97.6642 72.157 100.029 76.4593 100.029C81.9435 100.029 88.0896 95.8667 88.0896 87.2579C88.0896 78.649 81.9435 74.4864 76.4593 74.4864C72.157 74.4864 69.8404 76.8515 69.6513 77.2772H69.5095V65.9722H61.3304ZM69.3204 87.2579C69.3204 83.7576 71.7788 81.7236 74.71 81.7236C77.5467 81.7236 80.0524 83.8049 80.0524 87.2579C80.0524 90.7109 77.5467 92.7921 74.71 92.7921C71.7788 92.7921 69.3204 90.7582 69.3204 87.2579Z" fill="white"/>
<path d="M56.9516 75.2163H48.7798L48.7326 88.1378C48.7326 90.6659 47.5517 92.8663 44.812 92.8663C42.0251 92.8663 40.7969 90.6659 40.7969 88.1378L40.8442 75.2163H32.6724L32.6251 89.5423C32.6251 96.9862 36.7819 100.029 41.7417 100.029C45.0009 100.029 47.3155 98.6717 48.7326 96.7053V99.5612H56.9044L56.9516 75.2163Z" fill="white"/>
<path d="M20.4415 99.5428H28.7329V65.9722H20.4415V78.833H8.80542V65.9722H0.514099V99.5428H8.80542V86.4455H20.4415V99.5428Z" fill="white"/>
<path d="M237.941 62.5664H246.129V49.3915C246.129 46.8139 247.312 44.5703 250.057 44.5703C252.849 44.5703 254.08 46.8139 254.08 49.3915V62.5664H262.267V47.9595C262.267 40.3696 258.103 37.2668 253.133 37.2668C249.867 37.2668 247.548 38.6512 246.129 40.656V37.7442H237.941V62.5664Z" fill="white"/>
<path d="M221.909 63.0529C228.347 63.0529 235.022 58.612 235.022 50.1599C235.022 41.7078 228.347 37.2668 221.909 37.2668C215.424 37.2668 208.749 41.7078 208.749 50.1599C208.749 58.612 215.424 63.0529 221.909 63.0529ZM216.796 50.1599C216.796 46.865 219.069 44.6684 221.909 44.6684C224.702 44.6684 226.974 46.865 226.974 50.1599C226.974 53.4548 224.702 55.6514 221.909 55.6514C219.069 55.6514 216.796 53.4548 216.796 50.1599Z" fill="white"/>
<path d="M197.559 62.5666H205.83V37.9796H197.559V62.5666ZM197.559 36.0411H205.83V28.996H197.559V36.0411Z" fill="white"/>
<path d="M189.194 62.5665C191.019 62.5665 193.217 62.2358 194.153 61.1963V55.0065C193.311 55.29 192.422 55.3845 191.861 55.3845C189.569 55.3845 188.914 53.967 188.914 52.833V44.1389H194.06V37.7129H188.914V31.4286H180.82V37.7129H177.125V44.1389H180.82V54.0615C180.82 60.204 184.329 62.5665 189.194 62.5665Z" fill="white"/>
<path d="M159.077 63.0529C163.379 63.0529 165.695 60.6653 165.885 60.2356H166.026V62.5754H174.205V37.7444H166.026V40.0842H165.885C165.695 39.6544 163.379 37.2668 159.077 37.2668C153.592 37.2668 147.446 41.469 147.446 50.1599C147.446 58.8508 153.592 63.0529 159.077 63.0529ZM155.483 50.1599C155.483 46.674 157.989 44.5729 160.826 44.5729C163.757 44.5729 166.216 46.6262 166.216 50.1599C166.216 53.6935 163.757 55.7469 160.826 55.7469C157.989 55.7469 155.483 53.6458 155.483 50.1599Z" fill="white"/>
<path d="M135.83 63.0529C140.182 63.0529 143.966 60.9519 146.473 56.9407L140.56 53.025C139.473 54.4098 137.959 55.6514 135.83 55.6514C132.992 55.6514 130.674 53.4548 130.674 50.1121C130.674 46.865 132.992 44.6684 135.83 44.6684C137.959 44.6684 139.473 45.91 140.56 47.2948L146.473 43.3791C143.966 39.2724 140.182 37.2668 135.83 37.2668C129.208 37.2668 122.633 41.7078 122.633 50.1121C122.633 58.612 129.208 63.0529 135.83 63.0529Z" fill="white"/>
<path d="M94.8682 37.7782V38.061H91.4953V44.4701H94.8682V62.5665H103.087V44.4701H111.495V62.5665H119.714V38.061H103.087C103.134 36.176 104.179 34.8564 106.507 34.8564C106.602 34.8564 107.885 34.6679 109.12 35.2334V28.9657C107.457 27.9761 105.415 28.0232 104.084 28.0232C100.949 28.0232 94.8682 29.5312 94.8682 37.7782ZM111.495 36.1288H119.714V29.1071H111.495V36.1288Z" fill="white"/>
<path d="M80.7916 62.5666H89.0626V37.9796H80.7916V62.5666ZM80.7916 36.0411H89.0626V28.996H80.7916V36.0411Z" fill="white"/>
<path d="M72.7719 62.5665C74.6485 62.5665 76.9101 62.2358 77.8724 61.1963V55.0065C77.0063 55.29 76.0921 55.3845 75.5146 55.3845C73.1568 55.3845 72.4832 53.967 72.4832 52.833V44.1389H77.7762V37.7129H72.4832V31.4286H64.1587V37.7129H60.3574V44.1389H64.1587V54.0615C64.1587 60.204 67.7676 62.5665 72.7719 62.5665Z" fill="white"/>
<path d="M46.2717 63.0529C52.7097 63.0529 59.3843 58.612 59.3843 50.1599C59.3843 41.7078 52.7097 37.2668 46.2717 37.2668C39.7864 37.2668 33.1117 41.7078 33.1117 50.1599C33.1117 58.612 39.7864 63.0529 46.2717 63.0529ZM41.1592 50.1599C41.1592 46.865 43.4314 44.6684 46.2717 44.6684C49.0646 44.6684 51.3369 46.865 51.3369 50.1599C51.3369 53.4548 49.0646 55.6514 46.2717 55.6514C43.4314 55.6514 41.1592 53.4548 41.1592 50.1599Z" fill="white"/>
<path d="M0.514099 62.5666H8.81837V42.6133H9.05429L21.8882 62.5666H30.1924V28.996H21.8882V48.9492H21.6522L8.81837 28.996H0.514099V62.5666Z" fill="white"/>
<path d="M266.889 45.5379C278.847 45.5379 288.54 35.8446 288.54 23.8873C288.54 11.93 278.847 2.23669 266.889 2.23669C254.932 2.23669 245.239 11.93 245.239 23.8873C245.239 35.8446 254.932 45.5379 266.889 45.5379Z" fill="white"/>
<path d="M266.889 47.484C260.587 47.484 254.661 45.0296 250.204 40.5728C245.747 36.116 243.293 30.1898 243.293 23.8872C243.293 17.5847 245.747 11.6585 250.204 7.20171C254.661 2.74492 260.586 0.290527 266.889 0.290527C273.193 0.290527 279.118 2.74492 283.575 7.20171C288.032 11.6585 290.486 17.5838 290.486 23.8872C290.486 30.1907 288.032 36.116 283.575 40.5728C279.118 45.0296 273.193 47.484 266.889 47.484ZM266.889 4.34216C261.669 4.34216 256.76 6.37518 253.069 10.0667C249.377 13.7582 247.344 18.666 247.344 23.8872C247.344 29.1084 249.377 34.0163 253.069 37.7078C256.76 41.3993 261.668 43.4323 266.889 43.4323C272.111 43.4323 277.019 41.3993 280.71 37.7078C284.402 34.0163 286.435 29.1084 286.435 23.8872C286.435 18.666 284.402 13.7582 280.71 10.0667C277.019 6.37518 272.111 4.34216 266.889 4.34216Z" fill="#1D1D1B"/>
<path d="M264.273 12.2503C264.273 11.6645 264.25 11.1135 264.279 10.5643C264.319 9.83083 265.043 9.36172 265.743 9.60028C266.165 9.74448 266.428 10.0427 266.486 10.4842C266.548 10.9595 266.5 11.4384 266.512 11.9147C266.515 12.0144 266.512 12.1141 266.512 12.2422C267.289 12.3704 268.039 12.544 268.771 12.8529C269.964 11.1385 271.561 10.0213 273.649 9.65191C275.308 9.35816 276.889 9.62075 278.377 10.3907C281.198 11.8488 282.703 14.9679 282.073 18.135C281.722 19.8957 280.779 21.3244 279.319 22.4122C277.867 23.4946 276.214 23.9388 274.364 23.8542C274.463 24.1818 274.569 24.4702 274.709 24.7479C274.821 24.9696 274.939 25.1885 275.038 25.4164C275.265 25.9407 275.065 26.5264 274.574 26.8006C274.064 27.0855 273.428 26.9715 273.11 26.4775C272.528 25.5686 272.145 24.5752 271.983 23.5097C271.953 23.313 271.881 23.2062 271.701 23.119C268.67 21.6484 267.081 18.378 267.812 15.129C267.831 15.0498 267.842 14.9697 267.859 14.8744C266.937 14.5032 265.988 14.3172 265.005 14.4089C262.159 14.675 260.229 16.1366 259.22 18.7608C258.95 19.464 258.876 20.2028 258.874 20.9514C258.872 21.7864 258.902 22.6214 258.796 23.4545C258.667 24.472 258.297 25.4066 257.803 26.2995C257.295 27.2181 256.734 28.1091 256.327 29.0785C256.08 29.6651 255.9 30.2722 255.781 30.8962C255.65 31.5869 256.091 32.1629 256.802 32.2341C256.894 32.243 256.989 32.2412 257.082 32.2412C262.63 32.2412 268.178 32.2412 273.727 32.2394C273.876 32.2394 274.027 32.2305 274.172 32.2002C274.693 32.0916 275.042 31.6439 275.027 31.1223C275.019 30.8855 274.977 30.6487 275.055 30.4119C275.212 29.9321 275.639 29.6259 276.155 29.6357C276.652 29.6446 277.065 29.9624 277.201 30.4413C277.571 31.7311 276.851 33.3138 275.584 34.0108C275.032 34.3143 274.442 34.4488 273.811 34.447C272.248 34.4434 270.687 34.4461 269.124 34.4461C269.021 34.4461 268.92 34.4461 268.788 34.4461C268.732 35.5917 268.26 36.521 267.297 37.1762C266.644 37.6212 265.909 37.8082 265.118 37.7396C263.532 37.6026 262.109 36.3679 262.026 34.4808C261.934 34.4158 261.828 34.447 261.729 34.447C260.11 34.4443 258.492 34.4568 256.873 34.4416C254.915 34.4238 253.411 32.8785 253.515 30.9647C253.564 30.0621 253.859 29.2022 254.194 28.3628C254.623 27.292 255.225 26.3075 255.794 25.3069C256.294 24.4284 256.617 23.4999 256.621 22.4825C256.624 21.9778 256.624 21.4722 256.626 20.9675C256.628 20.315 256.661 19.6634 256.815 19.0261C257.585 15.8598 259.541 13.7279 262.654 12.617C263.162 12.4354 263.696 12.341 264.272 12.2476L264.273 12.2503ZM279.984 16.7117C280.003 14.0101 277.736 11.7678 274.961 11.7438C272.182 11.7197 269.909 13.9308 269.886 16.6778C269.863 19.4044 272.126 21.6466 274.913 21.6591C277.687 21.6725 279.964 19.4498 279.983 16.7108L279.984 16.7117ZM264.303 34.4594C264.314 35.0754 264.8 35.5472 265.41 35.5463C266.02 35.5454 266.512 35.0638 266.509 34.4594C265.775 34.4594 265.039 34.4594 264.304 34.4594H264.303Z" fill="#1D1D1B"/>
<path d="M273.796 16.7844C273.385 16.8421 273.059 16.7593 272.794 16.4628C272.384 16.0045 272.373 15.2728 272.811 14.8452C273.279 14.3878 273.777 13.9611 274.311 13.6022C274.967 13.1606 275.752 13.5957 275.862 14.4315C275.876 14.5356 275.888 14.6406 275.888 14.7457C275.89 15.9821 275.892 17.2195 275.888 18.456C275.887 19.117 275.613 19.553 275.119 19.7073C274.488 19.9034 273.849 19.4293 273.811 18.7088C273.783 18.1836 273.8 17.6546 273.797 17.1275C273.797 17.0243 273.797 16.9211 273.797 16.7844H273.796Z" fill="#1D1D1B"/>
</svg>
