<svg width="44" height="45" viewBox="0 0 44 45" fill="none" xmlns="http://www.w3.org/2000/svg">
<path d="M0 4.65991C0 2.45077 1.79086 0.659912 4 0.659912H40C42.2091 0.659912 44 2.45077 44 4.65991V40.6599C44 42.8691 42.2091 44.6599 40 44.6599H4C1.79086 44.6599 0 42.869 0 40.6599V4.65991Z" fill="#FDD254" fill-opacity="0.1"/>
<path fill-rule="evenodd" clip-rule="evenodd" d="M17 13.6599C16.4477 13.6599 16 14.1076 16 14.6599V30.6599C16 31.2122 16.4477 31.6599 17 31.6599H27C27.5523 31.6599 28 31.2122 28 30.6599V14.6599C28 14.1076 27.5523 13.6599 27 13.6599H17ZM14 14.6599C14 13.0031 15.3431 11.6599 17 11.6599H27C28.6569 11.6599 30 13.0031 30 14.6599V30.6599C30 32.3168 28.6569 33.6599 27 33.6599H17C15.3431 33.6599 14 32.3168 14 30.6599V14.6599ZM21 28.6599C21 28.1076 21.4477 27.6599 22 27.6599H22.01C22.5623 27.6599 23.01 28.1076 23.01 28.6599C23.01 29.2122 22.5623 29.6599 22.01 29.6599H22C21.4477 29.6599 21 29.2122 21 28.6599Z" fill="#FCBC00"/>
</svg>
