<svg width="77" height="40" viewBox="0 0 77 40" fill="none" xmlns="http://www.w3.org/2000/svg">
<path d="M76.3218 40H42.5314L42.4785 37.3844L42.4334 35.2385L38.6577 38.9997L37.6535 40H35.8703L31.0905 35.2385L30.9924 40H3.05764V34.6605H25.7436L25.8946 27.2385H30.6347L36.7606 33.3408L42.8865 27.2385H47.6266L47.783 34.6605H63.3785L55.9331 27.2385L50.5306 21.8568H41.5855L36.3128 16.5991L33.1889 13.4873L36.4533 10.2356H31.8933V4.89871H44.9876L40.5522 0H46.3946L51.0287 4.89871L56.9214 10.7687C54.8283 12.8538 51.4368 12.8538 49.3436 10.7687L48.811 10.2382H44.0311L40.7668 13.4899L43.8086 16.5173H52.7483L76.3218 40ZM16.9283 9.92148L19.2176 12.2019L9.31601 22.0653L13.1076 25.8423L23.0092 15.9789L24.7182 17.6813L18.4386 23.934L22.2302 27.711L28.5071 21.4556L37.1051 30.0205L40.8966 26.2435L16.9283 2.37545L0 19.2359L3.79158 23.0129L16.9283 9.92148Z" fill="#FCBC00"/>
</svg>
